<svg width="32" height="32" viewBox="0 0 32 32" fill="none" xmlns="http://www.w3.org/2000/svg">
  <defs>
    <linearGradient id="musicGradient" x1="0%" y1="0%" x2="100%" y2="100%">
      <stop offset="0%" style="stop-color:#8B5CF6;stop-opacity:1" />
      <stop offset="100%" style="stop-color:#EC4899;stop-opacity:1" />
    </linearGradient>
  </defs>
  
  <!-- Music Note -->
  <path d="M12 8V20C12 21.1046 11.1046 22 10 22C8.89543 22 8 21.1046 8 20C8 18.8954 8.89543 18 10 18C10.7286 18 11.4117 18.1948 12 18.382V8L20 6V18C20 19.1046 19.1046 20 18 20C16.8954 20 16 19.1046 16 18C16 16.8954 16.8954 16 18 16C18.7286 16 19.4117 16.1948 20 16.382V4L12 6V8Z" fill="url(#musicGradient)"/>
  
  <!-- Sound Waves -->
  <circle cx="22" cy="12" r="1" fill="url(#musicGradient)" opacity="0.8"/>
  <circle cx="24" cy="10" r="1.5" fill="url(#musicGradient)" opacity="0.6"/>
  <circle cx="26" cy="8" r="2" fill="url(#musicGradient)" opacity="0.4"/>
  
  <circle cx="22" cy="20" r="1" fill="url(#musicGradient)" opacity="0.8"/>
  <circle cx="24" cy="22" r="1.5" fill="url(#musicGradient)" opacity="0.6"/>
  <circle cx="26" cy="24" r="2" fill="url(#musicGradient)" opacity="0.4"/>
</svg>